<svg xmlns="http://www.w3.org/2000/svg" xmlns:xlink="http://www.w3.org/1999/xlink" width="32pt"
                        height="32pt" viewBox="0 0 64 64" version="1.1">
                        <g id="surface1">
                            <path
                                style=" stroke:none;fill-rule:evenodd;fill:rgb(8.235294%,14.117647%,41.568627%);fill-opacity:1;"
                                d="M 32 0.765625 L 47.460938 12.699219 L 62.921875 24.628906 L 57.015625 43.929688 L 51.109375 63.234375 L 12.890625 63.234375 L 6.984375 43.929688 L 1.078125 24.628906 L 16.539062 12.699219 Z M 32 0.765625 " />
                            <path
                                style=" stroke:none;fill-rule:evenodd;fill:rgb(98.431373%,92.156863%,0%);fill-opacity:1;"
                                d="M 26.445312 8.832031 C 22.65625 15.78125 16.621094 20.246094 8.421875 22.296875 C 6.496094 22.78125 6.503906 25.738281 7.691406 27.328125 C 8.878906 28.914062 10.792969 28.523438 12.71875 28.054688 C 21.226562 25.976562 27.378906 21.585938 30.746094 14.589844 C 31.605469 12.800781 32.660156 11.152344 31.472656 9.5625 C 30.285156 7.972656 27.394531 7.09375 26.445312 8.832031 Z M 26.445312 8.832031 " />
                            <path
                                style=" stroke:none;fill-rule:evenodd;fill:rgb(98.431373%,92.156863%,0%);fill-opacity:1;"
                                d="M 37.554688 8.832031 C 41.34375 15.78125 47.378906 20.246094 55.578125 22.296875 C 57.503906 22.78125 57.496094 25.738281 56.308594 27.328125 C 55.121094 28.914062 53.207031 28.523438 51.28125 28.054688 C 42.773438 25.976562 36.621094 21.585938 33.253906 14.589844 C 32.394531 12.800781 31.339844 11.152344 32.527344 9.5625 C 33.714844 7.972656 36.605469 7.09375 37.554688 8.832031 Z M 37.554688 8.832031 " />
                            <path
                                style=" stroke:none;fill-rule:evenodd;fill:rgb(98.431373%,92.156863%,0%);fill-opacity:1;"
                                d="M 4.875 32.75 C 10.210938 38.59375 12.464844 45.753906 11.738281 54.175781 C 11.566406 56.152344 14.367188 57.105469 16.253906 56.5 C 18.144531 55.898438 18.398438 53.960938 18.578125 51.984375 C 19.386719 43.265625 17.234375 36.019531 11.714844 30.558594 C 10.304688 29.164062 9.089844 27.628906 7.199219 28.234375 C 5.308594 28.839844 3.535156 31.285156 4.875 32.75 Z M 4.875 32.75 " />
                            <path
                                style=" stroke:none;fill-rule:evenodd;fill:rgb(98.431373%,92.156863%,0%);fill-opacity:1;"
                                d="M 32 58.199219 C 28.171875 58.1875 24.34375 59.015625 20.730469 60.679688 C 18.929688 61.507812 17.136719 59.078125 17.132812 57.09375 C 17.128906 55.109375 18.960938 54.414062 20.71875 53.492188 C 24.171875 51.683594 28.085938 50.785156 32 50.796875 C 35.914062 50.785156 39.828125 51.683594 43.28125 53.492188 C 45.039062 54.414062 46.871094 55.109375 46.867188 57.09375 C 46.863281 59.078125 45.070312 61.507812 43.269531 60.679688 C 39.65625 59.015625 35.828125 58.1875 32 58.199219 Z M 32 58.199219 " />
                            <path
                                style=" stroke:none;fill-rule:evenodd;fill:rgb(98.431373%,92.156863%,0%);fill-opacity:1;"
                                d="M 59.125 32.75 C 53.789062 38.59375 51.535156 45.753906 52.261719 54.175781 C 52.433594 56.152344 49.632812 57.105469 47.746094 56.5 C 45.855469 55.898438 45.601562 53.960938 45.421875 51.984375 C 44.613281 43.265625 46.765625 36.019531 52.285156 30.558594 C 53.695312 29.164062 54.910156 27.628906 56.800781 28.234375 C 58.691406 28.839844 60.464844 31.285156 59.125 32.75 Z M 59.125 32.75 " />
                            <path
                                style=" stroke:none;fill-rule:evenodd;fill:rgb(99.607843%,99.607843%,99.607843%);fill-opacity:1;"
                                d="M 17.65625 55.5 C 18.304688 54.601562 18.457031 53.300781 18.578125 51.984375 C 19.386719 43.265625 17.234375 36.019531 11.714844 30.558594 C 10.796875 29.648438 9.957031 28.679688 8.960938 28.28125 C 10.046875 28.667969 11.378906 28.382812 12.71875 28.054688 C 21.226562 25.976562 27.378906 21.585938 30.746094 14.589844 C 31.304688 13.425781 31.945312 12.320312 32 11.253906 C 32.054688 12.320312 32.695312 13.425781 33.253906 14.589844 C 36.621094 21.585938 42.773438 25.976562 51.28125 28.054688 C 52.625 28.382812 53.960938 28.671875 55.050781 28.277344 C 54.050781 28.671875 53.207031 29.644531 52.285156 30.558594 C 46.765625 36.019531 44.613281 43.265625 45.421875 51.984375 C 45.542969 53.308594 45.695312 54.617188 46.355469 55.515625 C 45.6875 54.632812 44.46875 54.117188 43.28125 53.492188 C 39.828125 51.683594 35.914062 50.785156 32 50.796875 C 28.085938 50.785156 24.171875 51.683594 20.71875 53.492188 C 19.539062 54.113281 18.324219 54.628906 17.65625 55.5 Z M 46.386719 55.558594 L 46.394531 55.566406 Z M 55.117188 28.253906 L 55.132812 28.246094 Z M 55.117188 28.253906 " />
                            <path
                                style=" stroke:none;fill-rule:evenodd;fill:rgb(8.235294%,14.117647%,41.568627%);fill-opacity:1;"
                                d="M 15.558594 35.542969 L 19.078125 35.542969 C 23.011719 32.949219 26.234375 29.371094 28.753906 24.8125 C 29.925781 22.550781 30.988281 21.464844 31.9375 21.558594 C 32.886719 21.464844 33.949219 22.550781 35.121094 24.8125 C 37.636719 29.371094 40.863281 32.949219 44.796875 35.542969 L 48.441406 35.542969 C 48.34375 35.710938 48.25 35.882812 48.15625 36.054688 L 40.109375 36.054688 C 39.949219 31.730469 36.394531 28.273438 32.03125 28.273438 C 27.667969 28.273438 24.113281 31.730469 23.953125 36.054688 L 15.84375 36.054688 C 15.75 35.882812 15.65625 35.710938 15.558594 35.542969 Z M 18.269531 43.089844 L 27.554688 43.089844 C 28.835938 43.945312 30.375 44.445312 32.03125 44.445312 C 33.6875 44.445312 35.226562 43.945312 36.507812 43.089844 L 45.730469 43.089844 C 45.226562 45.851562 45.128906 48.820312 45.421875 51.984375 C 45.542969 53.3125 45.699219 54.621094 46.359375 55.523438 C 45.695312 54.636719 44.472656 54.117188 43.28125 53.492188 C 39.828125 51.683594 35.914062 50.785156 32 50.796875 C 28.085938 50.785156 24.171875 51.683594 20.71875 53.492188 C 19.535156 54.113281 18.316406 54.632812 17.648438 55.511719 C 18.304688 54.613281 18.457031 53.308594 18.578125 51.984375 C 18.871094 48.820312 18.773438 45.851562 18.269531 43.089844 Z M 17.621094 55.550781 L 17.605469 55.566406 Z M 46.367188 55.53125 L 46.394531 55.566406 Z M 17.921875 41.484375 L 25.777344 41.484375 C 26.003906 41.757812 26.242188 42.015625 26.5 42.253906 L 18.101562 42.253906 C 18.046875 41.996094 17.988281 41.738281 17.921875 41.484375 Z M 38.285156 41.484375 L 46.078125 41.484375 C 46.011719 41.738281 45.953125 41.996094 45.898438 42.253906 L 37.5625 42.253906 C 37.820312 42.015625 38.058594 41.757812 38.285156 41.484375 Z M 17.464844 39.878906 L 24.75 39.878906 C 24.878906 40.140625 25.023438 40.398438 25.175781 40.648438 L 17.699219 40.648438 C 17.625 40.386719 17.546875 40.132812 17.464844 39.878906 Z M 39.3125 39.878906 L 46.535156 39.878906 C 46.453125 40.132812 46.375 40.386719 46.300781 40.648438 L 38.886719 40.648438 C 39.039062 40.398438 39.183594 40.140625 39.3125 39.878906 Z M 16.890625 38.289062 L 24.179688 38.289062 C 24.242188 38.550781 24.320312 38.808594 24.410156 39.058594 L 17.183594 39.058594 C 17.089844 38.800781 16.992188 38.542969 16.890625 38.289062 Z M 39.882812 38.289062 L 47.109375 38.289062 C 47.007812 38.542969 46.910156 38.800781 46.816406 39.058594 L 39.652344 39.058594 C 39.742188 38.808594 39.820312 38.550781 39.882812 38.289062 Z M 16.304688 36.964844 L 23.96875 36.964844 C 23.980469 37.136719 24 37.304688 24.023438 37.476562 L 16.542969 37.476562 C 16.464844 37.304688 16.386719 37.132812 16.304688 36.964844 Z M 40.09375 36.964844 L 47.695312 36.964844 C 47.613281 37.132812 47.535156 37.304688 47.457031 37.476562 L 40.039062 37.476562 C 40.0625 37.304688 40.082031 37.136719 40.09375 36.964844 Z M 40.09375 36.964844 " />
                            <path
                                style=" stroke:none;fill-rule:evenodd;fill:rgb(98.431373%,92.156863%,0%);fill-opacity:1;"
                                d="M 24.570312 30.773438 L 13.054688 31.304688 L 25.773438 29.335938 C 26.121094 28.894531 26.457031 28.441406 26.785156 27.972656 L 17.359375 28.152344 L 25.773438 29.335938 C 25.382812 29.832031 24.984375 30.3125 24.570312 30.773438 Z M 39.300781 30.773438 L 50.820312 31.304688 L 38.101562 29.335938 C 37.753906 28.894531 37.417969 28.441406 37.089844 27.972656 L 46.511719 28.152344 L 38.101562 29.335938 C 38.488281 29.832031 38.890625 30.3125 39.300781 30.773438 Z M 37.089844 27.972656 L 43.984375 26.902344 L 36.359375 26.886719 L 43.046875 25.871094 L 35.695312 25.808594 C 35.5 25.484375 35.308594 25.148438 35.121094 24.8125 C 35.082031 24.738281 35.042969 24.664062 35.007812 24.59375 L 39.925781 23.78125 L 34.46875 23.65625 L 38.273438 22.691406 L 33.847656 22.761719 L 35.933594 19.816406 L 33.398438 21.441406 C 33.441406 21.691406 33.421875 21.953125 33.339844 22.199219 C 33.867188 22.703125 34.421875 23.5 35.007812 24.59375 L 41.488281 24.71875 L 35.695312 25.808594 C 36.136719 26.558594 36.605469 27.28125 37.089844 27.972656 Z M 33.007812 20.652344 L 31.9375 13.636719 L 30.863281 20.652344 C 31.140625 20.351562 31.523438 20.167969 31.9375 20.148438 C 32.347656 20.167969 32.734375 20.351562 33.007812 20.652344 Z M 26.785156 27.972656 L 19.890625 26.902344 L 27.511719 26.886719 L 20.824219 25.871094 L 28.179688 25.808594 C 28.375 25.484375 28.566406 25.148438 28.753906 24.8125 C 28.789062 24.738281 28.828125 24.664062 28.867188 24.59375 L 23.945312 23.78125 L 29.40625 23.65625 L 25.601562 22.691406 L 30.027344 22.761719 L 27.941406 19.816406 L 30.476562 21.441406 C 30.433594 21.691406 30.449219 21.953125 30.53125 22.199219 C 30.003906 22.703125 29.449219 23.5 28.867188 24.59375 L 22.386719 24.71875 L 28.179688 25.808594 C 27.734375 26.558594 27.269531 27.28125 26.785156 27.972656 Z M 26.785156 27.972656 " />
                            <path
                                style=" stroke:none;fill-rule:evenodd;fill:rgb(8.235294%,14.117647%,41.568627%);fill-opacity:1;"
                                d="M 32.03125 31.089844 C 34.941406 31.089844 37.300781 33.449219 37.300781 36.359375 C 37.300781 39.269531 34.941406 41.628906 32.03125 41.628906 C 29.121094 41.628906 26.761719 39.269531 26.761719 36.359375 C 26.761719 33.449219 29.121094 31.089844 32.03125 31.089844 Z M 32.03125 31.089844 " />
                            <path
                                style=" stroke:none;fill-rule:evenodd;fill:rgb(8.235294%,14.117647%,41.568627%);fill-opacity:1;"
                                d="M 34.726562 36.359375 C 34.726562 37.847656 33.519531 39.054688 32.03125 39.054688 C 30.542969 39.054688 29.335938 37.847656 29.335938 36.359375 C 29.335938 34.871094 30.542969 33.664062 32.03125 33.664062 C 33.519531 33.664062 34.726562 34.871094 34.726562 36.359375 Z M 34.726562 36.359375 " />
                            <path
                                style=" stroke:none;fill-rule:nonzero;fill:rgb(8.235294%,14.117647%,41.568627%);fill-opacity:1;"
                                d="M 26.203125 33.574219 C 26.296875 33.621094 26.367188 33.640625 26.417969 33.628906 C 26.46875 33.617188 26.511719 33.578125 26.546875 33.511719 C 26.589844 33.429688 26.601562 33.363281 26.582031 33.308594 C 26.5625 33.253906 26.511719 33.207031 26.429688 33.164062 L 25.886719 32.890625 C 25.839844 32.867188 25.808594 32.859375 25.792969 32.863281 C 25.773438 32.871094 25.757812 32.894531 25.734375 32.9375 L 25.703125 32.996094 L 25.535156 32.910156 L 25.816406 32.359375 L 25.984375 32.441406 L 25.957031 32.496094 C 25.933594 32.539062 25.925781 32.570312 25.933594 32.585938 C 25.9375 32.605469 25.960938 32.625 26.003906 32.644531 L 26.582031 32.9375 C 26.707031 33 26.78125 33.097656 26.800781 33.222656 C 26.820312 33.347656 26.785156 33.5 26.695312 33.679688 C 26.613281 33.839844 26.519531 33.949219 26.40625 34.003906 C 26.296875 34.058594 26.183594 34.058594 26.0625 33.996094 L 25.476562 33.703125 C 25.429688 33.679688 25.398438 33.671875 25.382812 33.675781 C 25.363281 33.683594 25.34375 33.707031 25.324219 33.75 L 25.292969 33.808594 L 25.125 33.726562 L 25.488281 33.003906 L 25.65625 33.089844 L 25.625 33.15625 C 25.601562 33.199219 25.59375 33.230469 25.597656 33.246094 C 25.605469 33.265625 25.628906 33.285156 25.675781 33.308594 Z M 26.453125 31.570312 L 27.460938 31.789062 L 27.007812 31.394531 C 26.96875 31.359375 26.9375 31.34375 26.921875 31.347656 C 26.902344 31.351562 26.878906 31.371094 26.847656 31.402344 L 26.800781 31.460938 L 26.65625 31.335938 L 27.042969 30.890625 L 27.1875 31.015625 L 27.15625 31.050781 C 27.125 31.085938 27.109375 31.113281 27.109375 31.132812 C 27.109375 31.148438 27.128906 31.175781 27.167969 31.210938 L 27.953125 31.890625 L 27.648438 32.238281 L 26.582031 32 L 27.078125 32.429688 C 27.117188 32.464844 27.144531 32.480469 27.164062 32.476562 C 27.183594 32.476562 27.207031 32.457031 27.238281 32.421875 L 27.277344 32.378906 L 27.417969 32.503906 L 27.03125 32.949219 L 26.886719 32.824219 L 26.929688 32.773438 C 26.960938 32.738281 26.976562 32.710938 26.976562 32.691406 C 26.976562 32.675781 26.957031 32.648438 26.917969 32.613281 L 26.367188 32.132812 C 26.328125 32.101562 26.300781 32.085938 26.28125 32.085938 C 26.261719 32.089844 26.238281 32.109375 26.207031 32.144531 L 26.164062 32.195312 L 26.019531 32.070312 Z M 27.988281 30.214844 L 28.097656 30.367188 L 28.042969 30.40625 C 28.003906 30.433594 27.984375 30.457031 27.980469 30.476562 C 27.976562 30.492188 27.988281 30.523438 28.019531 30.566406 L 28.441406 31.160156 C 28.472656 31.203125 28.496094 31.226562 28.515625 31.226562 C 28.535156 31.230469 28.5625 31.21875 28.601562 31.191406 L 28.652344 31.152344 L 28.765625 31.308594 L 28.113281 31.769531 L 28.003906 31.613281 L 28.058594 31.574219 C 28.097656 31.546875 28.117188 31.523438 28.121094 31.507812 C 28.125 31.488281 28.113281 31.457031 28.082031 31.417969 L 27.660156 30.820312 C 27.628906 30.777344 27.605469 30.757812 27.589844 30.753906 C 27.570312 30.75 27.539062 30.761719 27.503906 30.789062 L 27.449219 30.828125 L 27.339844 30.675781 Z M 28.464844 30.316406 C 28.421875 30.273438 28.386719 30.246094 28.351562 30.238281 C 28.316406 30.226562 28.277344 30.226562 28.242188 30.246094 L 28.1875 30.273438 L 28.101562 30.105469 L 28.816406 29.742188 L 28.902344 29.914062 L 28.835938 29.945312 C 28.804688 29.964844 28.78125 29.976562 28.773438 29.992188 C 28.765625 30.003906 28.765625 30.019531 28.773438 30.035156 C 28.78125 30.046875 28.789062 30.0625 28.800781 30.078125 L 29.300781 30.59375 L 29.1875 29.878906 C 29.183594 29.871094 29.183594 29.859375 29.179688 29.851562 C 29.179688 29.84375 29.175781 29.835938 29.175781 29.832031 C 29.164062 29.816406 29.152344 29.804688 29.136719 29.804688 C 29.125 29.804688 29.097656 29.816406 29.0625 29.832031 L 29 29.863281 L 28.914062 29.695312 L 29.472656 29.414062 L 29.558594 29.582031 L 29.515625 29.605469 C 29.476562 29.621094 29.453125 29.644531 29.441406 29.671875 C 29.429688 29.695312 29.425781 29.738281 29.4375 29.789062 L 29.59375 30.851562 L 29.1875 31.058594 Z M 31.113281 29.023438 L 31.226562 29.511719 L 31.019531 29.558594 C 30.992188 29.5 30.964844 29.453125 30.945312 29.421875 C 30.921875 29.390625 30.894531 29.363281 30.871094 29.347656 C 30.839844 29.328125 30.804688 29.320312 30.765625 29.316406 C 30.726562 29.316406 30.671875 29.324219 30.589844 29.339844 L 30.550781 29.351562 L 30.382812 29.386719 L 30.46875 29.746094 L 30.515625 29.734375 C 30.574219 29.722656 30.613281 29.699219 30.632812 29.664062 C 30.648438 29.628906 30.648438 29.574219 30.632812 29.503906 L 30.628906 29.492188 L 30.792969 29.453125 L 30.929688 30.050781 L 30.765625 30.085938 C 30.742188 29.996094 30.71875 29.941406 30.691406 29.917969 C 30.664062 29.894531 30.617188 29.890625 30.558594 29.90625 L 30.507812 29.917969 L 30.601562 30.324219 L 30.832031 30.269531 C 30.921875 30.25 30.980469 30.230469 31.011719 30.210938 C 31.042969 30.195312 31.066406 30.167969 31.078125 30.140625 C 31.09375 30.101562 31.097656 30.0625 31.101562 30.015625 C 31.101562 29.964844 31.097656 29.910156 31.085938 29.839844 L 31.300781 29.789062 L 31.421875 30.328125 L 30.046875 30.648438 L 30.003906 30.464844 L 30.070312 30.449219 C 30.113281 30.4375 30.140625 30.425781 30.152344 30.414062 C 30.160156 30.398438 30.160156 30.367188 30.152344 30.320312 L 30.148438 30.308594 L 29.984375 29.597656 C 29.972656 29.546875 29.957031 29.519531 29.941406 29.507812 C 29.925781 29.5 29.898438 29.5 29.851562 29.511719 L 29.785156 29.527344 L 29.742188 29.34375 Z M 31.726562 30.03125 L 31.75 29.296875 C 31.75 29.246094 31.746094 29.214844 31.730469 29.199219 C 31.71875 29.1875 31.691406 29.183594 31.640625 29.179688 L 31.574219 29.179688 L 31.582031 28.988281 L 32.503906 29.019531 C 32.664062 29.023438 32.785156 29.054688 32.863281 29.113281 C 32.945312 29.171875 32.980469 29.253906 32.976562 29.367188 C 32.976562 29.441406 32.949219 29.503906 32.898438 29.554688 C 32.847656 29.605469 32.777344 29.636719 32.683594 29.652344 C 32.777344 29.667969 32.835938 29.699219 32.867188 29.742188 C 32.898438 29.789062 32.910156 29.890625 32.90625 30.050781 C 32.90625 30.097656 32.90625 30.132812 32.914062 30.152344 C 32.921875 30.167969 32.933594 30.179688 32.953125 30.179688 C 32.972656 30.179688 32.984375 30.167969 32.996094 30.148438 C 33.003906 30.125 33.011719 30.089844 33.011719 30.042969 C 33.011719 30.039062 33.011719 30.03125 33.011719 30.019531 C 33.011719 30.011719 33.011719 30.003906 33.011719 29.996094 L 33.148438 30.003906 C 33.148438 30.007812 33.148438 30.015625 33.148438 30.03125 C 33.148438 30.039062 33.148438 30.050781 33.148438 30.054688 C 33.144531 30.179688 33.113281 30.269531 33.0625 30.324219 C 33.007812 30.378906 32.925781 30.40625 32.808594 30.402344 C 32.6875 30.398438 32.601562 30.367188 32.546875 30.316406 C 32.492188 30.265625 32.46875 30.183594 32.472656 30.074219 L 32.476562 29.960938 C 32.476562 29.871094 32.46875 29.8125 32.445312 29.789062 C 32.421875 29.761719 32.371094 29.75 32.296875 29.746094 L 32.179688 29.742188 L 32.167969 30.042969 C 32.167969 30.097656 32.171875 30.128906 32.183594 30.140625 C 32.199219 30.152344 32.226562 30.160156 32.273438 30.164062 L 32.351562 30.164062 L 32.34375 30.355469 L 31.539062 30.328125 L 31.542969 30.140625 L 31.613281 30.140625 C 31.65625 30.140625 31.6875 30.136719 31.703125 30.125 C 31.714844 30.113281 31.722656 30.082031 31.726562 30.03125 Z M 32.179688 29.5625 L 32.296875 29.566406 C 32.378906 29.566406 32.4375 29.554688 32.472656 29.53125 C 32.507812 29.507812 32.523438 29.460938 32.527344 29.402344 C 32.527344 29.332031 32.515625 29.285156 32.484375 29.257812 C 32.453125 29.226562 32.402344 29.214844 32.324219 29.210938 L 32.191406 29.207031 Z M 33.335938 29.972656 L 33.523438 30.023438 C 33.527344 30.132812 33.554688 30.222656 33.613281 30.296875 C 33.667969 30.375 33.746094 30.425781 33.84375 30.449219 C 33.902344 30.464844 33.949219 30.464844 33.992188 30.449219 C 34.035156 30.433594 34.0625 30.40625 34.070312 30.367188 C 34.089844 30.304688 34.027344 30.234375 33.882812 30.148438 C 33.839844 30.121094 33.800781 30.101562 33.777344 30.085938 C 33.691406 30.03125 33.628906 29.992188 33.582031 29.957031 C 33.539062 29.925781 33.507812 29.898438 33.492188 29.875 C 33.449219 29.820312 33.421875 29.765625 33.410156 29.714844 C 33.398438 29.660156 33.398438 29.601562 33.414062 29.542969 C 33.449219 29.410156 33.527344 29.320312 33.644531 29.265625 C 33.761719 29.210938 33.902344 29.207031 34.058594 29.25 C 34.140625 29.269531 34.210938 29.296875 34.277344 29.332031 C 34.34375 29.367188 34.40625 29.410156 34.460938 29.460938 L 34.511719 29.402344 L 34.699219 29.453125 L 34.578125 29.902344 L 34.359375 29.84375 C 34.363281 29.746094 34.34375 29.667969 34.296875 29.609375 C 34.25 29.546875 34.175781 29.503906 34.078125 29.476562 C 34.019531 29.460938 33.96875 29.460938 33.921875 29.476562 C 33.878906 29.496094 33.851562 29.523438 33.839844 29.558594 C 33.824219 29.617188 33.886719 29.679688 34.023438 29.75 C 34.054688 29.765625 34.082031 29.777344 34.097656 29.789062 C 34.285156 29.886719 34.410156 29.984375 34.472656 30.070312 C 34.535156 30.160156 34.550781 30.265625 34.519531 30.382812 C 34.484375 30.511719 34.40625 30.605469 34.285156 30.65625 C 34.167969 30.707031 34.023438 30.710938 33.855469 30.664062 C 33.777344 30.644531 33.707031 30.617188 33.640625 30.578125 C 33.574219 30.542969 33.511719 30.496094 33.449219 30.445312 L 33.382812 30.503906 L 33.207031 30.453125 Z M 35.765625 30.007812 L 35.679688 30.175781 L 35.621094 30.148438 C 35.578125 30.125 35.550781 30.117188 35.53125 30.121094 C 35.515625 30.128906 35.492188 30.152344 35.472656 30.199219 L 35.140625 30.851562 C 35.117188 30.898438 35.109375 30.929688 35.117188 30.945312 C 35.121094 30.964844 35.148438 30.984375 35.191406 31.003906 L 35.25 31.035156 L 35.164062 31.203125 L 34.453125 30.84375 L 34.535156 30.675781 L 34.597656 30.703125 C 34.636719 30.726562 34.667969 30.734375 34.683594 30.726562 C 34.703125 30.722656 34.722656 30.699219 34.746094 30.652344 L 35.078125 30 C 35.101562 29.953125 35.109375 29.921875 35.101562 29.90625 C 35.097656 29.886719 35.070312 29.867188 35.03125 29.847656 L 34.96875 29.816406 L 35.054688 29.648438 Z M 36.234375 30.585938 C 36.179688 30.539062 36.117188 30.523438 36.058594 30.539062 C 35.996094 30.554688 35.933594 30.601562 35.878906 30.675781 L 35.875 30.679688 L 35.71875 30.558594 L 36.027344 30.15625 L 37.144531 31.023438 L 36.832031 31.421875 L 36.679688 31.304688 L 36.679688 31.296875 C 36.738281 31.222656 36.769531 31.15625 36.765625 31.089844 C 36.765625 31.027344 36.738281 30.972656 36.679688 30.925781 L 36.632812 30.890625 L 36.128906 31.542969 C 36.097656 31.585938 36.082031 31.613281 36.085938 31.632812 C 36.085938 31.652344 36.109375 31.675781 36.144531 31.703125 L 36.234375 31.773438 L 36.117188 31.921875 L 35.421875 31.382812 L 35.535156 31.234375 L 35.621094 31.296875 C 35.65625 31.324219 35.679688 31.339844 35.699219 31.339844 C 35.71875 31.339844 35.742188 31.316406 35.777344 31.273438 L 36.28125 30.621094 Z M 37.199219 32.199219 L 37.441406 31.851562 L 37.050781 32.015625 Z M 36.679688 32.550781 L 36.828125 32.429688 L 36.867188 32.476562 C 36.898438 32.515625 36.917969 32.539062 36.929688 32.546875 C 36.941406 32.550781 36.953125 32.550781 36.964844 32.539062 C 36.972656 32.53125 36.980469 32.527344 36.988281 32.519531 C 36.996094 32.511719 37 32.503906 37.007812 32.496094 L 37.089844 32.367188 L 36.863281 32.085938 L 36.738281 32.132812 C 36.71875 32.140625 36.703125 32.148438 36.691406 32.152344 C 36.679688 32.15625 36.671875 32.160156 36.664062 32.167969 C 36.65625 32.175781 36.65625 32.1875 36.660156 32.203125 C 36.664062 32.21875 36.675781 32.242188 36.695312 32.265625 L 36.738281 32.316406 L 36.589844 32.433594 L 36.214844 31.964844 L 36.363281 31.847656 L 36.394531 31.886719 C 36.414062 31.914062 36.441406 31.929688 36.472656 31.933594 C 36.503906 31.9375 36.542969 31.929688 36.59375 31.914062 L 37.601562 31.558594 L 37.90625 31.933594 L 37.3125 32.808594 C 37.277344 32.867188 37.257812 32.910156 37.257812 32.933594 C 37.257812 32.953125 37.269531 32.980469 37.292969 33.011719 L 37.335938 33.066406 L 37.1875 33.183594 Z M 37.605469 32.960938 L 37.691406 33.136719 C 37.613281 33.210938 37.566406 33.292969 37.546875 33.386719 C 37.527344 33.476562 37.542969 33.570312 37.585938 33.660156 C 37.613281 33.710938 37.648438 33.75 37.6875 33.769531 C 37.726562 33.792969 37.765625 33.792969 37.800781 33.773438 C 37.859375 33.746094 37.871094 33.648438 37.839844 33.488281 C 37.828125 33.4375 37.820312 33.394531 37.816406 33.367188 C 37.796875 33.269531 37.785156 33.191406 37.78125 33.136719 C 37.777344 33.082031 37.777344 33.039062 37.78125 33.011719 C 37.792969 32.945312 37.816406 32.890625 37.847656 32.84375 C 37.878906 32.800781 37.921875 32.761719 37.980469 32.734375 C 38.097656 32.675781 38.21875 32.671875 38.335938 32.722656 C 38.457031 32.773438 38.550781 32.871094 38.625 33.019531 C 38.664062 33.09375 38.691406 33.167969 38.710938 33.238281 C 38.726562 33.308594 38.738281 33.382812 38.738281 33.460938 L 38.8125 33.460938 L 38.902344 33.632812 L 38.484375 33.84375 L 38.382812 33.640625 C 38.457031 33.578125 38.503906 33.507812 38.515625 33.433594 C 38.53125 33.359375 38.515625 33.277344 38.46875 33.183594 C 38.441406 33.128906 38.40625 33.09375 38.363281 33.070312 C 38.324219 33.046875 38.285156 33.046875 38.25 33.0625 C 38.195312 33.089844 38.1875 33.179688 38.230469 33.324219 C 38.238281 33.359375 38.246094 33.386719 38.25 33.40625 C 38.300781 33.613281 38.3125 33.769531 38.289062 33.875 C 38.261719 33.980469 38.195312 34.0625 38.085938 34.117188 C 37.964844 34.179688 37.847656 34.179688 37.730469 34.125 C 37.613281 34.070312 37.511719 33.964844 37.433594 33.8125 C 37.398438 33.738281 37.371094 33.667969 37.355469 33.59375 C 37.339844 33.519531 37.332031 33.445312 37.328125 33.363281 L 37.242188 33.351562 L 37.160156 33.1875 Z M 37.605469 32.960938 " />
                            <path
                                style=" stroke:none;fill-rule:nonzero;fill:rgb(8.235294%,14.117647%,41.568627%);fill-opacity:1;"
                                d="M 25.320312 39.113281 L 25.488281 39.03125 L 25.519531 39.089844 C 25.539062 39.128906 25.558594 39.152344 25.574219 39.160156 C 25.589844 39.167969 25.617188 39.160156 25.664062 39.140625 L 26.328125 38.808594 C 26.371094 38.789062 26.398438 38.765625 26.402344 38.75 C 26.410156 38.734375 26.402344 38.703125 26.378906 38.660156 L 26.351562 38.601562 L 26.519531 38.519531 L 26.878906 39.242188 C 26.957031 39.398438 26.992188 39.523438 26.980469 39.617188 C 26.972656 39.714844 26.921875 39.785156 26.824219 39.835938 C 26.757812 39.867188 26.6875 39.875 26.617188 39.855469 C 26.550781 39.839844 26.480469 39.796875 26.414062 39.726562 C 26.445312 39.84375 26.445312 39.9375 26.421875 40.015625 C 26.398438 40.089844 26.34375 40.148438 26.261719 40.1875 C 26.148438 40.246094 26.042969 40.246094 25.949219 40.191406 C 25.859375 40.132812 25.765625 40.011719 25.667969 39.816406 Z M 25.761719 39.582031 L 25.800781 39.660156 C 25.835938 39.734375 25.878906 39.777344 25.925781 39.792969 C 25.96875 39.808594 26.027344 39.800781 26.097656 39.765625 C 26.160156 39.734375 26.199219 39.695312 26.214844 39.648438 C 26.226562 39.597656 26.214844 39.539062 26.179688 39.46875 L 26.144531 39.394531 Z M 26.300781 39.316406 L 26.332031 39.382812 C 26.367188 39.445312 26.402344 39.484375 26.441406 39.5 C 26.484375 39.515625 26.53125 39.511719 26.589844 39.484375 C 26.644531 39.457031 26.679688 39.421875 26.6875 39.382812 C 26.699219 39.34375 26.6875 39.292969 26.65625 39.226562 L 26.621094 39.15625 Z M 28.355469 41.003906 L 28.011719 41.363281 L 27.855469 41.214844 C 27.890625 41.160156 27.917969 41.113281 27.929688 41.078125 C 27.945312 41.039062 27.953125 41.007812 27.953125 40.972656 C 27.953125 40.9375 27.941406 40.902344 27.921875 40.871094 C 27.902344 40.839844 27.863281 40.792969 27.804688 40.738281 L 27.777344 40.707031 L 27.652344 40.589844 L 27.398438 40.851562 L 27.4375 40.890625 C 27.480469 40.929688 27.519531 40.949219 27.558594 40.945312 C 27.597656 40.941406 27.640625 40.914062 27.691406 40.859375 L 27.699219 40.851562 L 27.820312 40.96875 L 27.398438 41.40625 L 27.277344 41.289062 C 27.339844 41.222656 27.371094 41.171875 27.375 41.136719 C 27.378906 41.097656 27.359375 41.058594 27.316406 41.015625 L 27.277344 40.980469 L 26.988281 41.28125 L 27.15625 41.445312 C 27.222656 41.507812 27.273438 41.550781 27.304688 41.566406 C 27.339844 41.582031 27.371094 41.585938 27.402344 41.582031 C 27.441406 41.570312 27.480469 41.554688 27.519531 41.53125 C 27.558594 41.507812 27.605469 41.46875 27.65625 41.421875 L 27.816406 41.574219 L 27.429688 41.972656 L 26.414062 40.992188 L 26.546875 40.855469 L 26.59375 40.902344 C 26.625 40.933594 26.652344 40.949219 26.667969 40.949219 C 26.683594 40.953125 26.710938 40.9375 26.746094 40.902344 L 26.753906 40.894531 L 27.261719 40.367188 C 27.296875 40.328125 27.3125 40.300781 27.3125 40.285156 C 27.3125 40.265625 27.292969 40.242188 27.261719 40.210938 L 27.214844 40.164062 L 27.34375 40.027344 Z M 29.273438 41.574219 L 29.3125 42.601562 L 29.578125 42.0625 C 29.601562 42.015625 29.613281 41.984375 29.605469 41.96875 C 29.597656 41.949219 29.574219 41.933594 29.53125 41.914062 L 29.464844 41.878906 L 29.546875 41.710938 L 30.074219 41.972656 L 29.992188 42.140625 L 29.949219 42.121094 C 29.90625 42.097656 29.878906 42.089844 29.859375 42.097656 C 29.84375 42.101562 29.824219 42.125 29.800781 42.171875 L 29.339844 43.101562 L 28.925781 42.898438 L 28.886719 41.804688 L 28.597656 42.390625 C 28.574219 42.4375 28.566406 42.472656 28.570312 42.488281 C 28.578125 42.503906 28.601562 42.523438 28.644531 42.542969 L 28.695312 42.570312 L 28.613281 42.742188 L 28.082031 42.476562 L 28.167969 42.308594 L 28.226562 42.335938 C 28.269531 42.359375 28.296875 42.367188 28.316406 42.359375 C 28.335938 42.355469 28.355469 42.332031 28.378906 42.285156 L 28.703125 41.628906 C 28.726562 41.582031 28.734375 41.550781 28.726562 41.535156 C 28.722656 41.515625 28.695312 41.496094 28.652344 41.476562 L 28.59375 41.449219 L 28.679688 41.277344 Z M 31.046875 43 L 31.070312 42.8125 L 31.804688 42.894531 L 31.785156 43.082031 L 31.734375 43.078125 C 31.691406 43.074219 31.660156 43.074219 31.644531 43.085938 C 31.628906 43.09375 31.621094 43.125 31.613281 43.179688 L 31.566406 43.597656 L 31.324219 43.570312 L 31.289062 43.484375 C 31.21875 43.515625 31.152344 43.535156 31.082031 43.546875 C 31.015625 43.558594 30.949219 43.558594 30.882812 43.550781 C 30.675781 43.527344 30.519531 43.449219 30.417969 43.308594 C 30.3125 43.167969 30.273438 42.988281 30.296875 42.769531 C 30.320312 42.554688 30.40625 42.390625 30.546875 42.277344 C 30.6875 42.160156 30.863281 42.113281 31.074219 42.136719 C 31.144531 42.148438 31.210938 42.160156 31.265625 42.183594 C 31.324219 42.207031 31.375 42.234375 31.421875 42.273438 L 31.460938 42.203125 L 31.671875 42.226562 L 31.609375 42.777344 L 31.378906 42.75 C 31.371094 42.621094 31.347656 42.523438 31.308594 42.460938 C 31.265625 42.398438 31.207031 42.359375 31.128906 42.351562 C 31.039062 42.339844 30.96875 42.375 30.917969 42.449219 C 30.867188 42.519531 30.832031 42.648438 30.8125 42.824219 C 30.792969 43 30.800781 43.132812 30.832031 43.214844 C 30.863281 43.300781 30.921875 43.347656 31.011719 43.359375 C 31.070312 43.363281 31.109375 43.359375 31.132812 43.34375 C 31.15625 43.328125 31.171875 43.292969 31.175781 43.234375 L 31.1875 43.128906 C 31.195312 43.082031 31.191406 43.046875 31.179688 43.035156 C 31.167969 43.019531 31.136719 43.011719 31.089844 43.003906 Z M 32.972656 42.179688 L 33.011719 42.363281 L 33 42.367188 C 32.957031 42.375 32.929688 42.386719 32.917969 42.398438 C 32.90625 42.414062 32.90625 42.445312 32.917969 42.5 L 32.980469 42.824219 L 33.335938 42.390625 C 33.34375 42.382812 33.351562 42.371094 33.355469 42.359375 C 33.359375 42.351562 33.359375 42.339844 33.359375 42.332031 C 33.355469 42.320312 33.347656 42.3125 33.335938 42.308594 C 33.320312 42.308594 33.300781 42.308594 33.273438 42.3125 L 33.164062 42.335938 L 33.128906 42.148438 L 33.863281 42.007812 L 33.898438 42.191406 L 33.832031 42.207031 C 33.808594 42.210938 33.78125 42.222656 33.753906 42.246094 C 33.726562 42.269531 33.695312 42.300781 33.664062 42.339844 L 33.441406 42.617188 L 33.902344 43.078125 C 33.929688 43.109375 33.953125 43.125 33.980469 43.136719 C 34.003906 43.144531 34.03125 43.144531 34.058594 43.140625 L 34.140625 43.125 L 34.175781 43.3125 L 33.363281 43.46875 L 33.324219 43.28125 L 33.386719 43.269531 C 33.421875 43.265625 33.445312 43.257812 33.457031 43.246094 C 33.46875 43.238281 33.476562 43.230469 33.472656 43.214844 C 33.472656 43.207031 33.46875 43.199219 33.464844 43.191406 C 33.460938 43.183594 33.457031 43.175781 33.449219 43.171875 L 33.199219 42.917969 L 33.03125 43.109375 L 33.054688 43.21875 C 33.0625 43.269531 33.074219 43.296875 33.089844 43.308594 C 33.105469 43.320312 33.136719 43.320312 33.179688 43.308594 L 33.222656 43.300781 L 33.261719 43.488281 L 32.507812 43.632812 L 32.472656 43.449219 L 32.539062 43.433594 C 32.585938 43.425781 32.613281 43.414062 32.625 43.398438 C 32.636719 43.382812 32.636719 43.351562 32.625 43.300781 L 32.488281 42.582031 C 32.476562 42.53125 32.464844 42.5 32.449219 42.492188 C 32.433594 42.484375 32.402344 42.484375 32.355469 42.492188 L 32.289062 42.503906 L 32.253906 42.316406 Z M 35.089844 42.421875 C 35.136719 42.515625 35.183594 42.574219 35.230469 42.59375 C 35.277344 42.617188 35.335938 42.613281 35.402344 42.578125 C 35.484375 42.539062 35.535156 42.492188 35.550781 42.4375 C 35.570312 42.382812 35.558594 42.3125 35.515625 42.230469 L 35.246094 41.683594 C 35.222656 41.636719 35.203125 41.613281 35.183594 41.609375 C 35.167969 41.601562 35.136719 41.609375 35.097656 41.632812 L 35.035156 41.660156 L 34.949219 41.492188 L 35.507812 41.214844 L 35.59375 41.386719 L 35.535156 41.414062 C 35.496094 41.433594 35.46875 41.453125 35.464844 41.46875 C 35.457031 41.484375 35.464844 41.515625 35.484375 41.558594 L 35.773438 42.136719 C 35.835938 42.265625 35.839844 42.386719 35.78125 42.5 C 35.71875 42.613281 35.601562 42.710938 35.421875 42.800781 C 35.257812 42.882812 35.117188 42.910156 34.996094 42.890625 C 34.875 42.867188 34.78125 42.796875 34.722656 42.679688 L 34.429688 42.089844 C 34.410156 42.042969 34.390625 42.019531 34.371094 42.011719 C 34.351562 42.007812 34.324219 42.015625 34.28125 42.035156 L 34.21875 42.066406 L 34.136719 41.898438 L 34.859375 41.539062 L 34.941406 41.707031 L 34.875 41.742188 C 34.832031 41.761719 34.808594 41.78125 34.800781 41.800781 C 34.796875 41.816406 34.804688 41.847656 34.828125 41.894531 Z M 36.3125 40.414062 L 36.445312 40.550781 L 36.390625 40.605469 C 36.359375 40.636719 36.34375 40.660156 36.339844 40.675781 C 36.335938 40.695312 36.351562 40.71875 36.386719 40.753906 L 36.394531 40.761719 L 36.980469 41.367188 L 37.042969 41.304688 C 37.101562 41.246094 37.144531 41.203125 37.160156 41.175781 C 37.179688 41.144531 37.1875 41.113281 37.1875 41.082031 C 37.1875 41.046875 37.175781 41.007812 37.152344 40.964844 C 37.128906 40.921875 37.089844 40.867188 37.035156 40.804688 L 37.183594 40.660156 L 37.574219 41.0625 L 36.664062 41.941406 L 36.535156 41.804688 L 36.582031 41.757812 C 36.617188 41.726562 36.632812 41.699219 36.632812 41.679688 C 36.636719 41.664062 36.617188 41.636719 36.582031 41.597656 L 36.074219 41.070312 C 36.035156 41.035156 36.007812 41.015625 35.992188 41.015625 C 35.972656 41.015625 35.949219 41.035156 35.914062 41.066406 L 35.867188 41.113281 L 35.734375 40.976562 Z M 37.921875 39.738281 C 38.011719 39.789062 38.085938 39.8125 38.136719 39.804688 C 38.1875 39.796875 38.234375 39.761719 38.273438 39.695312 C 38.316406 39.617188 38.332031 39.550781 38.316406 39.496094 C 38.300781 39.441406 38.253906 39.390625 38.171875 39.34375 L 37.648438 39.035156 C 37.601562 39.011719 37.570312 39 37.554688 39.003906 C 37.539062 39.011719 37.519531 39.035156 37.496094 39.074219 L 37.460938 39.132812 L 37.296875 39.039062 L 37.609375 38.5 L 37.773438 38.597656 L 37.742188 38.648438 C 37.71875 38.691406 37.707031 38.71875 37.710938 38.738281 C 37.714844 38.753906 37.738281 38.773438 37.78125 38.800781 L 38.339844 39.125 C 38.460938 39.195312 38.53125 39.296875 38.542969 39.421875 C 38.554688 39.550781 38.511719 39.699219 38.410156 39.871094 C 38.320312 40.027344 38.214844 40.132812 38.101562 40.179688 C 37.988281 40.230469 37.875 40.21875 37.757812 40.152344 L 37.191406 39.824219 C 37.148438 39.796875 37.117188 39.785156 37.097656 39.792969 C 37.082031 39.796875 37.058594 39.820312 37.035156 39.863281 L 37.003906 39.921875 L 36.839844 39.824219 L 37.242188 39.128906 L 37.40625 39.222656 L 37.371094 39.285156 C 37.347656 39.328125 37.335938 39.359375 37.339844 39.375 C 37.34375 39.394531 37.367188 39.414062 37.414062 39.441406 Z M 37.921875 39.738281 " />
                            <path
                                style=" stroke:none;fill-rule:evenodd;fill:rgb(100%,94.901961%,7.058824%);fill-opacity:1;"
                                d="M 32.03125 33.953125 L 32.457031 34.941406 L 32.878906 35.929688 L 31.183594 35.929688 L 31.605469 34.941406 Z M 32.03125 33.953125 " />
                            <path
                                style=" stroke:none;fill-rule:evenodd;fill:rgb(100%,94.901961%,7.058824%);fill-opacity:1;"
                                d="M 29.894531 37.652344 L 30.539062 36.789062 L 31.183594 35.929688 L 31.605469 36.664062 L 32.03125 37.398438 L 30.964844 37.523438 Z M 29.894531 37.652344 " />
                            <path
                                style=" stroke:none;fill-rule:evenodd;fill:rgb(100%,94.901961%,7.058824%);fill-opacity:1;"
                                d="M 34.167969 37.652344 L 33.097656 37.523438 L 32.03125 37.398438 L 32.457031 36.664062 L 32.878906 35.929688 L 33.523438 36.789062 Z M 34.167969 37.652344 " />
                            <path
                                style=" stroke:none;fill-rule:evenodd;fill:rgb(100%,94.901961%,7.058824%);fill-opacity:1;"
                                d="M 31.296875 33.765625 L 32.03125 33.664062 L 32.765625 33.765625 L 32.03125 32.390625 Z M 31.296875 33.765625 " />
                            <path
                                style=" stroke:none;fill-rule:evenodd;fill:rgb(100%,94.901961%,7.058824%);fill-opacity:1;"
                                d="M 32.691406 33.746094 L 33.378906 34.027344 L 33.960938 34.480469 L 34.015625 32.921875 Z M 32.691406 33.746094 " />
                            <path
                                style=" stroke:none;fill-rule:evenodd;fill:rgb(100%,94.901961%,7.058824%);fill-opacity:1;"
                                d="M 33.910156 34.429688 L 34.363281 35.011719 L 34.644531 35.699219 L 35.46875 34.375 Z M 33.910156 34.429688 " />
                            <path
                                style=" stroke:none;fill-rule:evenodd;fill:rgb(100%,94.901961%,7.058824%);fill-opacity:1;"
                                d="M 34.625 35.625 L 34.726562 36.359375 L 34.625 37.09375 L 36 36.359375 Z M 34.625 35.625 " />
                            <path
                                style=" stroke:none;fill-rule:evenodd;fill:rgb(100%,94.901961%,7.058824%);fill-opacity:1;"
                                d="M 34.644531 37.019531 L 34.363281 37.707031 L 33.910156 38.289062 L 35.46875 38.34375 Z M 34.644531 37.019531 " />
                            <path
                                style=" stroke:none;fill-rule:evenodd;fill:rgb(100%,94.901961%,7.058824%);fill-opacity:1;"
                                d="M 33.960938 38.238281 L 33.378906 38.691406 L 32.691406 38.972656 L 34.015625 39.796875 Z M 33.960938 38.238281 " />
                            <path
                                style=" stroke:none;fill-rule:evenodd;fill:rgb(100%,94.901961%,7.058824%);fill-opacity:1;"
                                d="M 32.765625 38.953125 L 32.03125 39.054688 L 31.296875 38.953125 L 32.03125 40.328125 Z M 32.765625 38.953125 " />
                            <path
                                style=" stroke:none;fill-rule:evenodd;fill:rgb(100%,94.901961%,7.058824%);fill-opacity:1;"
                                d="M 31.371094 38.972656 L 30.683594 38.691406 L 30.101562 38.238281 L 30.046875 39.796875 Z M 31.371094 38.972656 " />
                            <path
                                style=" stroke:none;fill-rule:evenodd;fill:rgb(100%,94.901961%,7.058824%);fill-opacity:1;"
                                d="M 30.152344 38.289062 L 29.699219 37.707031 L 29.417969 37.019531 L 28.59375 38.34375 Z M 30.152344 38.289062 " />
                            <path
                                style=" stroke:none;fill-rule:evenodd;fill:rgb(100%,94.901961%,7.058824%);fill-opacity:1;"
                                d="M 29.4375 37.09375 L 29.335938 36.359375 L 29.4375 35.625 L 28.0625 36.359375 Z M 29.4375 37.09375 " />
                            <path
                                style=" stroke:none;fill-rule:evenodd;fill:rgb(100%,94.901961%,7.058824%);fill-opacity:1;"
                                d="M 29.417969 35.699219 L 29.699219 35.011719 L 30.152344 34.429688 L 28.59375 34.375 Z M 29.417969 35.699219 " />
                            <path
                                style=" stroke:none;fill-rule:evenodd;fill:rgb(100%,94.901961%,7.058824%);fill-opacity:1;"
                                d="M 30.101562 34.480469 L 30.683594 34.027344 L 31.371094 33.746094 L 30.046875 32.921875 Z M 30.101562 34.480469 " />
                            <path
                                style=" stroke:none;fill-rule:evenodd;fill:rgb(100%,94.901961%,7.058824%);fill-opacity:1;"
                                d="M 31.324219 33.71875 L 30.046875 32.921875 L 32.03125 32.390625 Z M 31.324219 33.71875 " />
                            <path
                                style=" stroke:none;fill-rule:evenodd;fill:rgb(100%,94.901961%,7.058824%);fill-opacity:1;"
                                d="M 32.738281 33.71875 L 32.03125 32.390625 L 34.015625 32.921875 Z M 32.738281 33.71875 " />
                            <path
                                style=" stroke:none;fill-rule:evenodd;fill:rgb(100%,94.901961%,7.058824%);fill-opacity:1;"
                                d="M 33.964844 34.425781 L 34.015625 32.921875 L 35.46875 34.375 Z M 33.964844 34.425781 " />
                            <path
                                style=" stroke:none;fill-rule:evenodd;fill:rgb(100%,94.901961%,7.058824%);fill-opacity:1;"
                                d="M 34.671875 35.652344 L 35.46875 34.375 L 36 36.359375 Z M 34.671875 35.652344 " />
                            <path
                                style=" stroke:none;fill-rule:evenodd;fill:rgb(100%,94.901961%,7.058824%);fill-opacity:1;"
                                d="M 34.671875 37.066406 L 36 36.359375 L 35.46875 38.34375 Z M 34.671875 37.066406 " />
                            <path
                                style=" stroke:none;fill-rule:evenodd;fill:rgb(100%,94.901961%,7.058824%);fill-opacity:1;"
                                d="M 33.964844 38.292969 L 35.46875 38.34375 L 34.015625 39.796875 Z M 33.964844 38.292969 " />
                            <path
                                style=" stroke:none;fill-rule:evenodd;fill:rgb(100%,94.901961%,7.058824%);fill-opacity:1;"
                                d="M 32.738281 39 L 34.015625 39.796875 L 32.03125 40.328125 Z M 32.738281 39 " />
                            <path
                                style=" stroke:none;fill-rule:evenodd;fill:rgb(100%,94.901961%,7.058824%);fill-opacity:1;"
                                d="M 31.324219 39 L 32.03125 40.328125 L 30.046875 39.796875 Z M 31.324219 39 " />
                            <path
                                style=" stroke:none;fill-rule:evenodd;fill:rgb(100%,94.901961%,7.058824%);fill-opacity:1;"
                                d="M 30.097656 38.292969 L 30.046875 39.796875 L 28.59375 38.34375 Z M 30.097656 38.292969 " />
                            <path
                                style=" stroke:none;fill-rule:evenodd;fill:rgb(100%,94.901961%,7.058824%);fill-opacity:1;"
                                d="M 29.390625 37.066406 L 28.59375 38.34375 L 28.0625 36.359375 Z M 29.390625 37.066406 " />
                            <path
                                style=" stroke:none;fill-rule:evenodd;fill:rgb(100%,94.901961%,7.058824%);fill-opacity:1;"
                                d="M 29.390625 35.652344 L 28.0625 36.359375 L 28.59375 34.375 Z M 29.390625 35.652344 " />
                            <path
                                style=" stroke:none;fill-rule:evenodd;fill:rgb(100%,94.901961%,7.058824%);fill-opacity:1;"
                                d="M 30.097656 34.425781 L 28.59375 34.375 L 30.046875 32.921875 Z M 30.097656 34.425781 " />
                            <path
                                style=" stroke:none;fill-rule:evenodd;fill:rgb(100%,94.901961%,7.058824%);fill-opacity:1;"
                                d="M 30.679688 31.3125 L 30.046875 32.921875 L 32.03125 32.390625 Z M 30.679688 31.3125 " />
                            <path
                                style=" stroke:none;fill-rule:evenodd;fill:rgb(100%,94.901961%,7.058824%);fill-opacity:1;"
                                d="M 33.382812 31.3125 L 32.03125 32.390625 L 34.015625 32.921875 Z M 33.382812 31.3125 " />
                            <path
                                style=" stroke:none;fill-rule:evenodd;fill:rgb(100%,94.901961%,7.058824%);fill-opacity:1;"
                                d="M 35.726562 32.664062 L 34.015625 32.921875 L 35.46875 34.375 Z M 35.726562 32.664062 " />
                            <path
                                style=" stroke:none;fill-rule:evenodd;fill:rgb(100%,94.901961%,7.058824%);fill-opacity:1;"
                                d="M 37.078125 35.007812 L 35.46875 34.375 L 36 36.359375 Z M 37.078125 35.007812 " />
                            <path
                                style=" stroke:none;fill-rule:evenodd;fill:rgb(100%,94.901961%,7.058824%);fill-opacity:1;"
                                d="M 37.078125 37.710938 L 36 36.359375 L 35.46875 38.34375 Z M 37.078125 37.710938 " />
                            <path
                                style=" stroke:none;fill-rule:evenodd;fill:rgb(100%,94.901961%,7.058824%);fill-opacity:1;"
                                d="M 35.726562 40.054688 L 35.46875 38.34375 L 34.015625 39.796875 Z M 35.726562 40.054688 " />
                            <path
                                style=" stroke:none;fill-rule:evenodd;fill:rgb(100%,94.901961%,7.058824%);fill-opacity:1;"
                                d="M 33.382812 41.40625 L 34.015625 39.796875 L 32.03125 40.328125 Z M 33.382812 41.40625 " />
                            <path
                                style=" stroke:none;fill-rule:evenodd;fill:rgb(100%,94.901961%,7.058824%);fill-opacity:1;"
                                d="M 30.679688 41.40625 L 32.03125 40.328125 L 30.046875 39.796875 Z M 30.679688 41.40625 " />
                            <path
                                style=" stroke:none;fill-rule:evenodd;fill:rgb(100%,94.901961%,7.058824%);fill-opacity:1;"
                                d="M 28.335938 40.054688 L 30.046875 39.796875 L 28.59375 38.34375 Z M 28.335938 40.054688 " />
                            <path
                                style=" stroke:none;fill-rule:evenodd;fill:rgb(100%,94.901961%,7.058824%);fill-opacity:1;"
                                d="M 26.984375 37.710938 L 28.59375 38.34375 L 28.0625 36.359375 Z M 26.984375 37.710938 " />
                            <path
                                style=" stroke:none;fill-rule:evenodd;fill:rgb(100%,94.901961%,7.058824%);fill-opacity:1;"
                                d="M 26.984375 35.007812 L 28.0625 36.359375 L 28.59375 34.375 Z M 26.984375 35.007812 " />
                            <path
                                style=" stroke:none;fill-rule:evenodd;fill:rgb(100%,94.901961%,7.058824%);fill-opacity:1;"
                                d="M 28.335938 32.664062 L 28.59375 34.375 L 30.046875 32.921875 Z M 28.335938 32.664062 " />
                            <path
                                style=" stroke:none;fill-rule:evenodd;fill:rgb(99.607843%,99.607843%,99.607843%);fill-opacity:1;"
                                d="M 31.859375 44.882812 C 30.417969 46.152344 28.257812 46.152344 26.816406 44.882812 C 25.390625 45.992188 23.410156 46.066406 21.902344 45.070312 C 21.339844 46.085938 20.492188 46.914062 19.46875 47.457031 C 20.539062 47.507812 21.558594 47 22.167969 46.117188 C 23.621094 46.980469 25.429688 46.980469 26.878906 46.117188 C 28.386719 47.128906 30.351562 47.128906 31.859375 46.117188 C 33.363281 47.128906 35.332031 47.128906 36.835938 46.117188 C 38.289062 46.980469 40.097656 46.980469 41.550781 46.117188 C 42.15625 47 43.179688 47.507812 44.25 47.457031 C 43.222656 46.914062 42.378906 46.085938 41.816406 45.070312 C 40.304688 46.066406 38.328125 45.992188 36.898438 44.882812 C 35.460938 46.152344 33.300781 46.152344 31.859375 44.882812 Z M 35.808594 48.550781 C 36.679688 49.335938 37.691406 50.042969 38.835938 50.671875 C 37.671875 50.59375 36.660156 50.179688 35.808594 49.425781 C 33.207031 50.4375 30.511719 50.4375 27.910156 49.425781 C 27.054688 50.179688 26.046875 50.59375 24.882812 50.671875 C 26.027344 50.042969 27.035156 49.335938 27.910156 48.550781 C 30.167969 49.511719 33.550781 49.511719 35.808594 48.550781 Z M 36.804688 47.816406 C 37.800781 48.425781 38.972656 48.679688 40.128906 48.535156 C 38.914062 48.152344 37.800781 47.5 36.867188 46.632812 C 35.382812 47.742188 33.34375 47.742188 31.859375 46.632812 C 30.371094 47.742188 28.335938 47.742188 26.847656 46.632812 C 25.917969 47.5 24.804688 48.152344 23.585938 48.535156 C 24.746094 48.679688 25.917969 48.425781 26.910156 47.816406 C 28.480469 48.546875 30.289062 48.546875 31.859375 47.816406 C 33.425781 48.546875 35.238281 48.546875 36.804688 47.816406 Z M 36.804688 47.816406 " />
                            <path
                                style=" stroke:none;fill-rule:nonzero;fill:rgb(21.568627%,20.392157%,20.784314%);fill-opacity:1;"
                                d="M 28.359375 32.6875 L 28.609375 34.339844 L 30.007812 32.9375 Z M 32.046875 33.945312 L 32.472656 34.933594 L 32.894531 35.917969 L 33.539062 36.777344 L 34.179688 37.640625 L 34.207031 37.671875 L 34.164062 37.667969 L 33.097656 37.542969 L 32.03125 37.414062 L 30.964844 37.542969 L 29.898438 37.667969 L 29.855469 37.671875 L 29.882812 37.640625 L 30.523438 36.777344 L 31.167969 35.917969 L 31.589844 34.933594 L 32.015625 33.945312 L 32.03125 33.90625 Z M 32.847656 35.945312 L 31.214844 35.945312 L 31.621094 36.652344 L 32.03125 37.363281 L 32.441406 36.652344 Z M 32.4375 34.945312 L 32.03125 33.996094 L 31.625 34.945312 L 31.210938 35.910156 L 32.851562 35.910156 Z M 30.554688 36.800781 L 29.933594 37.628906 L 30.960938 37.507812 L 32.003906 37.382812 L 31.589844 36.671875 L 31.179688 35.960938 Z M 33.101562 37.507812 L 34.128906 37.628906 L 33.507812 36.800781 L 32.882812 35.960938 L 32.472656 36.671875 L 32.058594 37.382812 Z M 31.386719 33.738281 L 32.027344 33.648438 L 32.035156 33.648438 L 32.675781 33.738281 L 32.683594 33.734375 L 32.714844 33.710938 L 32.03125 32.429688 L 31.347656 33.710938 L 31.378906 33.734375 Z M 32.03125 33.683594 L 31.339844 33.777344 L 30.691406 34.042969 L 30.140625 34.46875 L 29.714844 35.023438 L 29.449219 35.667969 L 29.355469 36.359375 L 29.449219 37.050781 L 29.714844 37.699219 L 30.140625 38.25 L 30.691406 38.675781 L 31.339844 38.941406 L 32.03125 39.035156 L 32.722656 38.941406 L 33.371094 38.675781 L 33.921875 38.25 L 34.347656 37.699219 L 34.613281 37.050781 L 34.707031 36.359375 L 34.613281 35.667969 L 34.347656 35.023438 L 33.921875 34.46875 L 33.371094 34.042969 L 32.722656 33.777344 Z M 31.277344 33.765625 L 31.28125 33.757812 L 31.300781 33.726562 L 30.066406 32.957031 L 30.117188 34.410156 L 30.160156 34.410156 L 30.671875 34.011719 L 30.675781 34.011719 Z M 32.027344 32.363281 L 32.03125 32.355469 L 32.035156 32.363281 L 33.371094 31.300781 L 33.390625 31.285156 L 33.398438 31.308594 L 34.023438 32.898438 L 34.035156 32.890625 L 34.035156 32.902344 L 35.722656 32.648438 L 35.746094 32.644531 L 35.742188 32.667969 L 35.488281 34.355469 L 35.5 34.355469 L 35.492188 34.367188 L 37.082031 34.992188 L 37.105469 35 L 37.089844 35.019531 L 36.027344 36.355469 L 36.035156 36.359375 L 36.027344 36.363281 L 37.089844 37.699219 L 37.105469 37.71875 L 37.082031 37.726562 L 35.492188 38.351562 L 35.5 38.363281 L 35.488281 38.363281 L 35.742188 40.050781 L 35.746094 40.074219 L 35.722656 40.070312 L 34.035156 39.816406 L 34.035156 39.828125 L 34.023438 39.824219 L 33.398438 41.410156 L 33.390625 41.433594 L 33.371094 41.417969 L 32.035156 40.355469 L 32.03125 40.367188 L 32.027344 40.355469 L 30.691406 41.417969 L 30.671875 41.433594 L 30.664062 41.410156 L 30.039062 39.820312 L 30.027344 39.828125 L 30.027344 39.816406 L 28.339844 40.070312 L 28.316406 40.074219 L 28.320312 40.050781 L 28.574219 38.363281 L 28.5625 38.363281 L 28.570312 38.351562 L 26.980469 37.726562 L 26.957031 37.71875 L 26.972656 37.699219 L 28.035156 36.367188 L 28.027344 36.359375 L 28.035156 36.351562 L 26.972656 35.019531 L 26.957031 35 L 26.980469 34.992188 L 28.570312 34.367188 L 28.5625 34.355469 L 28.574219 34.355469 L 28.320312 32.667969 L 28.316406 32.644531 L 28.339844 32.648438 L 30.027344 32.902344 L 30.027344 32.890625 L 30.039062 32.898438 L 30.664062 31.308594 L 30.671875 31.285156 L 30.691406 31.300781 Z M 32.761719 33.726562 L 32.78125 33.757812 L 32.785156 33.765625 L 33.386719 34.011719 L 33.390625 34.011719 L 33.902344 34.410156 L 33.945312 34.410156 L 33.996094 32.957031 Z M 33.980469 34.445312 L 33.980469 34.488281 L 34.378906 35 L 34.382812 35.007812 L 34.625 35.605469 L 34.632812 35.609375 L 34.664062 35.628906 L 35.433594 34.394531 Z M 34.679688 35.675781 L 34.660156 35.707031 L 34.65625 35.714844 L 34.742188 36.355469 L 34.742188 36.363281 L 34.65625 37.003906 L 34.660156 37.011719 L 34.679688 37.042969 L 35.960938 36.359375 Z M 34.664062 37.089844 L 34.632812 37.109375 L 34.625 37.113281 L 34.382812 37.714844 L 34.378906 37.71875 L 33.980469 38.230469 L 33.980469 38.273438 L 35.433594 38.324219 Z M 33.945312 38.308594 L 33.902344 38.308594 L 33.390625 38.707031 L 33.386719 38.710938 L 32.785156 38.953125 L 32.78125 38.960938 L 32.761719 38.992188 L 33.996094 39.761719 Z M 32.714844 39.007812 L 32.683594 38.988281 L 32.675781 38.984375 L 32.035156 39.070312 L 32.027344 39.070312 L 31.386719 38.984375 L 31.378906 38.988281 L 31.347656 39.007812 L 32.03125 40.289062 Z M 31.300781 38.992188 L 31.28125 38.960938 L 31.277344 38.953125 L 30.675781 38.710938 L 30.671875 38.707031 L 30.160156 38.308594 L 30.117188 38.308594 L 30.066406 39.761719 Z M 30.082031 38.273438 L 30.082031 38.230469 L 29.683594 37.71875 L 29.679688 37.714844 L 29.4375 37.113281 L 29.429688 37.109375 L 29.398438 37.089844 L 28.628906 38.324219 Z M 29.382812 37.042969 L 29.402344 37.011719 L 29.40625 37.003906 L 29.320312 36.363281 L 29.320312 36.355469 L 29.40625 35.714844 L 29.402344 35.707031 L 29.382812 35.675781 L 28.101562 36.359375 Z M 29.398438 35.628906 L 29.429688 35.609375 L 29.4375 35.605469 L 29.679688 35.007812 L 29.683594 35 L 30.082031 34.488281 L 30.082031 34.445312 L 28.628906 34.394531 Z M 30.09375 32.929688 L 31.316406 33.695312 L 31.996094 32.421875 Z M 32.066406 32.421875 L 32.746094 33.695312 L 33.96875 32.929688 Z M 34.03125 32.964844 L 33.984375 34.40625 L 35.425781 34.359375 Z M 35.460938 34.421875 L 34.699219 35.644531 L 35.96875 36.324219 Z M 35.96875 36.394531 L 34.699219 37.074219 L 35.460938 38.296875 Z M 35.425781 38.359375 L 33.984375 38.3125 L 34.03125 39.753906 Z M 33.96875 39.789062 L 32.746094 39.027344 L 32.066406 40.300781 Z M 31.996094 40.300781 L 31.316406 39.027344 L 30.09375 39.789062 Z M 30.03125 39.753906 L 30.078125 38.3125 L 28.636719 38.359375 Z M 28.601562 38.296875 L 29.367188 37.074219 L 28.09375 36.394531 Z M 28.09375 36.324219 L 29.367188 35.644531 L 28.601562 34.421875 Z M 28.636719 34.359375 L 30.078125 34.40625 L 30.03125 32.964844 Z M 30.6875 31.34375 L 30.078125 32.898438 L 31.992188 32.382812 Z M 33.375 31.34375 L 32.070312 32.382812 L 33.984375 32.898438 Z M 35.703125 32.6875 L 34.054688 32.9375 L 35.453125 34.339844 Z M 37.046875 35.015625 L 35.492188 34.40625 L 36.007812 36.320312 Z M 37.046875 37.703125 L 36.007812 36.398438 L 35.492188 38.3125 Z M 35.703125 40.03125 L 35.453125 38.382812 L 34.054688 39.78125 Z M 33.375 41.375 L 33.984375 39.820312 L 32.070312 40.335938 Z M 30.6875 41.375 L 31.992188 40.335938 L 30.078125 39.820312 Z M 28.359375 40.03125 L 30.007812 39.78125 L 28.609375 38.382812 Z M 27.015625 37.703125 L 28.570312 38.3125 L 28.054688 36.398438 Z M 27.015625 35.015625 L 28.054688 36.320312 L 28.570312 34.40625 Z M 27.015625 35.015625 " />
                            <path
                                style=" stroke:none;fill-rule:nonzero;fill:rgb(21.568627%,20.392157%,20.784314%);fill-opacity:1;"
                                d="M 24.558594 30.789062 L 13.050781 31.320312 L 13.046875 31.28125 L 25.644531 29.335938 L 17.351562 28.167969 L 17.355469 28.128906 L 26.570312 27.957031 L 19.882812 26.917969 L 19.882812 26.882812 L 27.273438 26.867188 L 20.816406 25.886719 L 20.820312 25.851562 L 27.992188 25.789062 L 22.378906 24.734375 L 22.378906 24.695312 L 28.664062 24.574219 L 23.9375 23.796875 L 23.941406 23.761719 L 29.269531 23.636719 L 25.589844 22.703125 L 25.59375 22.667969 L 29.984375 22.742188 L 27.921875 19.824219 L 27.945312 19.800781 L 30.457031 21.410156 C 30.496094 21.199219 30.582031 20.992188 30.707031 20.8125 C 30.746094 20.75 30.792969 20.695312 30.84375 20.640625 L 31.914062 13.632812 L 31.949219 13.632812 L 33.019531 20.640625 C 33.070312 20.695312 33.117188 20.75 33.15625 20.8125 C 33.28125 20.992188 33.367188 21.199219 33.40625 21.410156 L 35.917969 19.800781 L 35.941406 19.824219 L 33.878906 22.742188 L 38.265625 22.667969 L 38.273438 22.703125 L 34.59375 23.636719 L 39.921875 23.761719 L 39.925781 23.796875 L 35.195312 24.574219 L 41.484375 24.695312 L 41.484375 24.734375 L 35.871094 25.789062 L 43.042969 25.851562 L 43.046875 25.886719 L 36.589844 26.867188 L 43.980469 26.882812 L 43.980469 26.917969 L 37.292969 27.957031 L 46.507812 28.128906 L 46.511719 28.167969 L 38.21875 29.335938 L 50.816406 31.28125 L 50.8125 31.320312 L 39.316406 30.789062 C 37.75 29.03125 36.351562 27.039062 35.121094 24.8125 C 33.949219 22.550781 32.886719 21.464844 31.9375 21.558594 C 30.988281 21.464844 29.925781 22.550781 28.753906 24.8125 C 27.523438 27.039062 26.125 29.03125 24.558594 30.789062 Z M 30.488281 21.429688 L 30.488281 21.445312 L 30.484375 21.464844 L 30.484375 21.476562 L 30.480469 21.476562 L 30.480469 21.5 L 30.476562 21.503906 L 30.476562 21.535156 L 30.472656 21.539062 L 30.472656 21.574219 L 30.46875 21.582031 L 30.46875 21.640625 L 30.464844 21.648438 L 30.464844 21.765625 L 30.46875 21.773438 L 30.46875 21.832031 L 30.472656 21.835938 L 30.472656 21.871094 L 30.476562 21.878906 L 30.476562 21.90625 L 30.480469 21.914062 L 30.480469 21.929688 L 30.484375 21.933594 L 30.484375 21.953125 L 30.488281 21.960938 L 30.488281 21.976562 L 30.492188 21.984375 L 30.492188 22 L 30.496094 22.007812 L 30.496094 22.019531 L 30.5 22.023438 L 30.5 22.035156 L 30.503906 22.039062 L 30.503906 22.054688 L 30.507812 22.058594 L 30.507812 22.070312 L 30.511719 22.078125 L 30.511719 22.089844 L 30.515625 22.089844 L 30.515625 22.101562 L 30.519531 22.105469 L 30.519531 22.113281 L 30.523438 22.117188 L 30.523438 22.128906 L 30.527344 22.132812 L 30.527344 22.144531 L 30.53125 22.144531 L 30.53125 22.15625 L 30.535156 22.164062 C 30.761719 21.949219 30.988281 21.789062 31.207031 21.683594 C 31.429688 21.574219 31.652344 21.523438 31.867188 21.53125 L 31.878906 21.53125 L 31.882812 21.542969 L 31.929688 21.535156 L 31.933594 21.535156 L 31.980469 21.542969 L 31.984375 21.53125 L 31.996094 21.53125 C 32.210938 21.523438 32.429688 21.574219 32.65625 21.683594 C 32.875 21.789062 33.097656 21.949219 33.328125 22.164062 L 33.328125 22.15625 L 33.332031 22.152344 L 33.332031 22.144531 L 33.335938 22.144531 L 33.335938 22.132812 L 33.339844 22.128906 L 33.339844 22.117188 L 33.34375 22.113281 L 33.34375 22.101562 L 33.347656 22.097656 L 33.347656 22.089844 L 33.351562 22.082031 L 33.351562 22.070312 L 33.355469 22.066406 L 33.355469 22.058594 L 33.359375 22.054688 L 33.359375 22.039062 L 33.363281 22.035156 L 33.363281 22.023438 L 33.367188 22.019531 L 33.367188 22 L 33.371094 21.996094 L 33.371094 21.984375 L 33.375 21.976562 L 33.375 21.960938 L 33.378906 21.953125 L 33.378906 21.933594 L 33.382812 21.929688 L 33.382812 21.90625 L 33.386719 21.902344 L 33.386719 21.871094 L 33.390625 21.867188 L 33.390625 21.828125 L 33.394531 21.824219 L 33.394531 21.773438 L 33.398438 21.765625 L 33.398438 21.648438 L 33.394531 21.640625 L 33.394531 21.585938 L 33.390625 21.582031 L 33.390625 21.539062 L 33.386719 21.535156 L 33.386719 21.511719 L 33.382812 21.503906 L 33.382812 21.476562 L 33.378906 21.476562 L 33.378906 21.464844 L 33.375 21.445312 L 33.375 21.433594 C 33.335938 21.222656 33.253906 21.015625 33.128906 20.832031 C 33.085938 20.773438 33.039062 20.714844 32.992188 20.660156 L 32.980469 20.648438 L 32.976562 20.648438 L 32.972656 20.640625 L 32.894531 20.5625 L 32.890625 20.5625 L 32.886719 20.554688 L 32.882812 20.554688 L 32.878906 20.546875 L 32.875 20.546875 L 32.871094 20.542969 L 32.867188 20.542969 L 32.863281 20.535156 L 32.859375 20.535156 L 32.835938 20.511719 L 32.832031 20.511719 L 32.828125 20.507812 L 32.828125 20.503906 L 32.820312 20.5 L 32.816406 20.5 L 32.8125 20.492188 L 32.808594 20.492188 L 32.800781 20.484375 L 32.796875 20.484375 L 32.792969 20.476562 L 32.789062 20.476562 L 32.78125 20.472656 L 32.773438 20.464844 L 32.765625 20.460938 L 32.765625 20.457031 L 32.757812 20.453125 L 32.753906 20.449219 L 32.746094 20.445312 L 32.742188 20.445312 L 32.738281 20.441406 L 32.738281 20.4375 L 32.730469 20.433594 L 32.726562 20.433594 L 32.722656 20.425781 L 32.71875 20.425781 L 32.714844 20.421875 L 32.710938 20.421875 L 32.699219 20.410156 L 32.691406 20.410156 L 32.691406 20.40625 L 32.675781 20.398438 L 32.65625 20.386719 L 32.648438 20.382812 L 32.644531 20.378906 L 32.640625 20.378906 L 32.628906 20.367188 L 32.625 20.367188 L 32.601562 20.355469 L 32.59375 20.347656 L 32.589844 20.347656 L 32.585938 20.34375 L 32.570312 20.335938 L 32.558594 20.332031 L 32.542969 20.324219 L 32.539062 20.320312 L 32.535156 20.320312 L 32.53125 20.316406 L 32.527344 20.316406 L 32.511719 20.308594 L 32.5 20.304688 L 32.5 20.300781 L 32.492188 20.300781 L 32.488281 20.296875 L 32.484375 20.296875 L 32.480469 20.292969 L 32.476562 20.292969 L 32.460938 20.285156 L 32.449219 20.28125 L 32.433594 20.273438 L 32.429688 20.273438 L 32.425781 20.269531 L 32.417969 20.269531 L 32.414062 20.265625 L 32.410156 20.265625 L 32.40625 20.261719 L 32.398438 20.261719 L 32.382812 20.253906 L 32.378906 20.253906 L 32.371094 20.25 L 32.367188 20.25 L 32.363281 20.246094 L 32.355469 20.246094 L 32.347656 20.242188 L 32.335938 20.238281 L 32.328125 20.234375 L 32.320312 20.234375 L 32.316406 20.230469 L 32.308594 20.230469 L 32.304688 20.226562 L 32.292969 20.226562 L 32.292969 20.222656 L 32.28125 20.222656 L 32.265625 20.214844 L 32.25 20.214844 L 32.246094 20.210938 L 32.238281 20.210938 L 32.230469 20.207031 L 32.21875 20.203125 L 32.1875 20.195312 L 32.175781 20.195312 L 32.15625 20.191406 L 32.152344 20.191406 L 32.148438 20.1875 L 32.132812 20.1875 L 32.128906 20.183594 L 32.109375 20.183594 L 32.101562 20.179688 L 32.082031 20.179688 L 32.0625 20.175781 L 32.054688 20.175781 L 32.046875 20.171875 L 32.023438 20.171875 L 32.015625 20.167969 L 31.988281 20.167969 L 31.980469 20.164062 L 31.882812 20.164062 L 31.875 20.167969 L 31.847656 20.167969 L 31.839844 20.171875 L 31.816406 20.171875 L 31.808594 20.175781 L 31.800781 20.175781 L 31.78125 20.179688 L 31.761719 20.179688 L 31.753906 20.183594 L 31.734375 20.183594 L 31.730469 20.1875 L 31.714844 20.1875 L 31.710938 20.191406 L 31.707031 20.191406 L 31.6875 20.195312 L 31.675781 20.195312 L 31.640625 20.203125 L 31.625 20.210938 L 31.613281 20.210938 L 31.613281 20.214844 L 31.597656 20.214844 L 31.589844 20.21875 L 31.578125 20.222656 L 31.570312 20.222656 L 31.570312 20.226562 L 31.558594 20.226562 L 31.550781 20.230469 L 31.546875 20.230469 L 31.542969 20.234375 L 31.535156 20.234375 L 31.527344 20.238281 L 31.515625 20.242188 L 31.507812 20.246094 L 31.5 20.246094 L 31.496094 20.25 L 31.492188 20.25 L 31.484375 20.253906 L 31.480469 20.253906 L 31.464844 20.261719 L 31.457031 20.261719 L 31.453125 20.265625 L 31.445312 20.265625 L 31.445312 20.269531 L 31.4375 20.269531 L 31.433594 20.273438 L 31.429688 20.273438 L 31.414062 20.28125 L 31.402344 20.285156 L 31.386719 20.292969 L 31.382812 20.292969 L 31.378906 20.296875 L 31.371094 20.296875 L 31.371094 20.300781 L 31.363281 20.300781 L 31.363281 20.304688 L 31.351562 20.308594 L 31.335938 20.316406 L 31.332031 20.316406 L 31.328125 20.320312 L 31.324219 20.320312 L 31.320312 20.324219 L 31.304688 20.332031 L 31.292969 20.335938 L 31.277344 20.34375 L 31.273438 20.347656 L 31.269531 20.347656 L 31.261719 20.355469 L 31.238281 20.367188 L 31.234375 20.367188 L 31.222656 20.378906 L 31.21875 20.378906 L 31.214844 20.382812 L 31.207031 20.386719 L 31.1875 20.398438 L 31.171875 20.40625 L 31.171875 20.410156 L 31.164062 20.410156 L 31.152344 20.421875 L 31.148438 20.421875 L 31.144531 20.425781 L 31.140625 20.425781 L 31.132812 20.433594 L 31.125 20.4375 L 31.125 20.441406 L 31.109375 20.449219 L 31.105469 20.453125 L 31.101562 20.453125 L 31.097656 20.457031 L 31.097656 20.460938 L 31.089844 20.464844 L 31.082031 20.472656 L 31.078125 20.472656 L 31.074219 20.476562 L 31.070312 20.476562 L 31.066406 20.484375 L 31.0625 20.484375 L 31.054688 20.492188 L 31.050781 20.492188 L 31.046875 20.5 L 31.042969 20.5 L 31.035156 20.503906 L 31.035156 20.507812 L 31.03125 20.511719 L 31.027344 20.511719 L 31.003906 20.535156 L 31 20.535156 L 30.996094 20.542969 L 30.992188 20.542969 L 30.988281 20.546875 L 30.984375 20.546875 L 30.980469 20.554688 L 30.976562 20.554688 L 30.972656 20.5625 L 30.96875 20.5625 L 30.9375 20.59375 L 30.929688 20.597656 L 30.929688 20.601562 L 30.890625 20.640625 L 30.886719 20.648438 L 30.882812 20.648438 L 30.871094 20.660156 C 30.824219 20.714844 30.777344 20.773438 30.734375 20.832031 C 30.609375 21.015625 30.527344 21.21875 30.488281 21.429688 Z M 30.886719 20.59375 L 30.898438 20.582031 L 30.902344 20.574219 L 30.910156 20.570312 L 30.910156 20.566406 L 30.917969 20.5625 L 30.945312 20.535156 L 30.949219 20.535156 L 30.953125 20.53125 L 30.953125 20.527344 L 30.960938 20.523438 L 30.972656 20.511719 L 30.980469 20.507812 L 30.980469 20.503906 L 30.988281 20.5 L 31.003906 20.484375 L 31.007812 20.484375 L 31.015625 20.476562 L 31.023438 20.472656 L 31.023438 20.46875 L 31.027344 20.464844 L 31.03125 20.464844 L 31.039062 20.457031 L 31.042969 20.457031 L 31.058594 20.441406 L 31.0625 20.441406 L 31.070312 20.433594 L 31.085938 20.425781 L 31.085938 20.421875 L 31.089844 20.417969 L 31.09375 20.417969 L 31.097656 20.414062 L 31.105469 20.410156 L 31.113281 20.402344 L 31.121094 20.398438 L 31.125 20.394531 L 31.132812 20.390625 L 31.140625 20.382812 L 31.148438 20.378906 L 31.152344 20.378906 L 31.160156 20.371094 L 31.164062 20.371094 L 31.179688 20.363281 L 31.179688 20.359375 L 31.183594 20.355469 L 31.1875 20.355469 L 31.191406 20.351562 L 31.207031 20.34375 L 31.21875 20.335938 L 31.222656 20.335938 L 31.226562 20.332031 L 31.230469 20.332031 L 31.238281 20.324219 L 31.253906 20.316406 L 31.257812 20.316406 L 31.265625 20.308594 L 31.269531 20.308594 L 31.285156 20.300781 L 31.289062 20.300781 L 31.289062 20.296875 L 31.296875 20.292969 L 31.300781 20.292969 L 31.304688 20.289062 L 31.308594 20.289062 L 31.316406 20.285156 L 31.320312 20.28125 L 31.328125 20.28125 L 31.328125 20.277344 L 31.339844 20.273438 L 31.355469 20.265625 L 31.359375 20.265625 L 31.363281 20.261719 L 31.367188 20.261719 L 31.371094 20.257812 L 31.378906 20.257812 L 31.382812 20.253906 L 31.40625 20.242188 L 31.417969 20.242188 L 31.421875 20.238281 L 31.425781 20.238281 L 31.429688 20.234375 L 31.433594 20.234375 L 31.441406 20.230469 L 31.453125 20.226562 L 31.460938 20.222656 L 31.464844 20.222656 L 31.46875 20.21875 L 31.472656 20.21875 L 31.480469 20.214844 L 31.488281 20.214844 L 31.503906 20.207031 L 31.507812 20.207031 L 31.523438 20.199219 L 31.53125 20.199219 L 31.539062 20.195312 L 31.546875 20.195312 L 31.550781 20.191406 L 31.558594 20.191406 L 31.582031 20.183594 L 31.589844 20.183594 L 31.59375 20.179688 L 31.601562 20.179688 L 31.605469 20.175781 L 31.617188 20.175781 L 31.625 20.171875 L 31.632812 20.171875 L 31.636719 20.167969 L 31.648438 20.167969 L 31.652344 20.164062 L 31.664062 20.164062 L 31.667969 20.160156 L 31.679688 20.160156 L 31.691406 20.15625 L 31.703125 20.15625 L 31.710938 20.152344 L 31.726562 20.152344 L 31.726562 20.148438 L 31.746094 20.148438 L 31.757812 20.144531 L 31.769531 20.144531 L 31.777344 20.140625 L 31.796875 20.140625 L 31.804688 20.136719 L 31.828125 20.136719 L 31.832031 20.132812 L 31.863281 20.132812 L 31.871094 20.128906 L 31.921875 20.128906 L 31.929688 20.125 L 31.933594 20.125 L 31.941406 20.128906 L 31.992188 20.128906 L 32 20.132812 L 32.03125 20.132812 L 32.035156 20.136719 L 32.058594 20.136719 L 32.066406 20.140625 L 32.085938 20.140625 L 32.09375 20.144531 L 32.105469 20.144531 L 32.113281 20.148438 L 32.132812 20.148438 L 32.136719 20.152344 L 32.152344 20.152344 L 32.160156 20.15625 L 32.171875 20.15625 L 32.179688 20.160156 L 32.195312 20.160156 L 32.199219 20.164062 L 32.210938 20.164062 L 32.214844 20.167969 L 32.226562 20.167969 L 32.226562 20.171875 L 32.238281 20.171875 L 32.246094 20.175781 L 32.257812 20.175781 L 32.257812 20.179688 L 32.269531 20.179688 L 32.273438 20.183594 L 32.28125 20.183594 L 32.292969 20.1875 L 32.300781 20.191406 L 32.3125 20.191406 L 32.316406 20.195312 L 32.324219 20.195312 L 32.328125 20.199219 L 32.339844 20.199219 L 32.355469 20.207031 L 32.359375 20.207031 L 32.375 20.214844 L 32.382812 20.214844 L 32.390625 20.21875 L 32.394531 20.21875 L 32.398438 20.222656 L 32.402344 20.222656 L 32.410156 20.226562 L 32.421875 20.230469 L 32.4375 20.238281 L 32.441406 20.238281 L 32.445312 20.242188 L 32.457031 20.242188 L 32.480469 20.253906 L 32.484375 20.257812 L 32.492188 20.257812 L 32.496094 20.261719 L 32.5 20.261719 L 32.503906 20.265625 L 32.507812 20.265625 L 32.53125 20.277344 L 32.535156 20.28125 L 32.539062 20.28125 L 32.5625 20.292969 L 32.566406 20.292969 L 32.574219 20.300781 L 32.578125 20.300781 L 32.601562 20.3125 L 32.605469 20.316406 L 32.609375 20.316406 L 32.625 20.324219 L 32.632812 20.332031 L 32.636719 20.332031 L 32.640625 20.335938 L 32.644531 20.335938 L 32.65625 20.34375 L 32.671875 20.351562 L 32.675781 20.355469 L 32.679688 20.355469 L 32.683594 20.359375 L 32.683594 20.363281 L 32.699219 20.371094 L 32.703125 20.371094 L 32.710938 20.378906 L 32.714844 20.378906 L 32.722656 20.382812 L 32.730469 20.390625 L 32.738281 20.394531 L 32.742188 20.398438 L 32.75 20.402344 L 32.757812 20.410156 L 32.765625 20.414062 L 32.769531 20.417969 L 32.773438 20.417969 L 32.777344 20.421875 L 32.777344 20.425781 L 32.792969 20.433594 L 32.800781 20.441406 L 32.804688 20.441406 L 32.820312 20.457031 L 32.824219 20.457031 L 32.832031 20.464844 L 32.835938 20.464844 L 32.839844 20.46875 L 32.839844 20.472656 L 32.847656 20.476562 L 32.855469 20.484375 L 32.859375 20.484375 L 32.875 20.5 L 32.882812 20.503906 L 32.882812 20.507812 L 32.890625 20.515625 L 32.894531 20.515625 L 32.914062 20.535156 L 32.917969 20.535156 L 32.925781 20.542969 L 32.925781 20.546875 L 32.933594 20.550781 L 32.953125 20.570312 L 32.960938 20.574219 L 32.964844 20.582031 L 32.976562 20.59375 L 31.929688 13.753906 Z M 13.378906 31.265625 L 24.558594 30.753906 C 24.761719 30.523438 24.964844 30.289062 25.164062 30.050781 C 25.351562 29.824219 25.539062 29.59375 25.726562 29.359375 Z M 25.761719 29.316406 C 25.929688 29.097656 26.101562 28.875 26.265625 28.652344 C 26.425781 28.433594 26.585938 28.214844 26.742188 27.992188 L 17.582031 28.164062 Z M 39.304688 30.753906 L 50.484375 31.265625 L 38.136719 29.359375 C 38.324219 29.59375 38.511719 29.824219 38.699219 30.050781 C 38.898438 30.289062 39.097656 30.523438 39.304688 30.753906 Z M 37.597656 28.652344 C 37.761719 28.875 37.933594 29.097656 38.101562 29.316406 L 46.28125 28.164062 L 37.121094 27.992188 C 37.277344 28.214844 37.4375 28.433594 37.597656 28.652344 Z M 37.09375 27.953125 L 43.75 26.917969 L 36.386719 26.902344 C 36.617188 27.257812 36.851562 27.609375 37.09375 27.953125 Z M 36.363281 26.867188 L 42.816406 25.886719 L 35.71875 25.824219 C 35.929688 26.175781 36.144531 26.523438 36.363281 26.867188 Z M 35.414062 25.304688 C 35.507812 25.46875 35.601562 25.628906 35.695312 25.789062 L 41.308594 24.730469 L 35.03125 24.609375 L 35.074219 24.691406 L 35.132812 24.800781 C 35.222656 24.96875 35.320312 25.136719 35.414062 25.304688 Z M 35.011719 24.570312 L 39.730469 23.792969 L 34.496094 23.671875 C 34.664062 23.945312 34.835938 24.242188 35.011719 24.570312 Z M 34.472656 23.632812 L 38.113281 22.707031 L 33.878906 22.777344 C 33.972656 22.898438 34.066406 23.027344 34.160156 23.164062 C 34.265625 23.308594 34.367188 23.464844 34.472656 23.632812 Z M 33.839844 22.730469 L 35.859375 19.878906 L 33.414062 21.445312 L 33.414062 21.46875 L 33.417969 21.472656 L 33.417969 21.496094 L 33.421875 21.5 L 33.421875 21.527344 L 33.425781 21.53125 L 33.425781 21.5625 L 33.429688 21.574219 L 33.429688 21.628906 L 33.433594 21.632812 L 33.433594 21.777344 L 33.429688 21.785156 L 33.429688 21.820312 C 33.425781 21.882812 33.417969 21.941406 33.40625 22.003906 L 33.402344 22.011719 L 33.402344 22.027344 L 33.398438 22.03125 L 33.398438 22.042969 L 33.394531 22.046875 L 33.394531 22.058594 L 33.390625 22.066406 L 33.390625 22.078125 L 33.386719 22.082031 L 33.386719 22.09375 L 33.382812 22.09375 L 33.382812 22.105469 L 33.378906 22.113281 L 33.378906 22.121094 L 33.375 22.125 L 33.375 22.136719 L 33.371094 22.140625 L 33.371094 22.148438 L 33.367188 22.152344 L 33.367188 22.164062 L 33.363281 22.167969 L 33.363281 22.175781 L 33.359375 22.179688 L 33.359375 22.1875 L 33.355469 22.191406 C 33.515625 22.34375 33.675781 22.523438 33.839844 22.730469 Z M 20.113281 26.917969 L 26.769531 27.953125 C 27.011719 27.609375 27.246094 27.257812 27.476562 26.902344 Z M 21.046875 25.886719 L 27.5 26.867188 C 27.71875 26.523438 27.933594 26.179688 28.144531 25.824219 Z M 28.164062 25.789062 C 28.261719 25.628906 28.355469 25.46875 28.449219 25.304688 C 28.542969 25.136719 28.636719 24.96875 28.730469 24.800781 L 28.789062 24.691406 L 28.832031 24.609375 L 22.554688 24.730469 Z M 24.132812 23.792969 L 28.851562 24.570312 C 29.027344 24.242188 29.199219 23.945312 29.367188 23.671875 Z M 25.75 22.707031 L 29.390625 23.632812 C 29.496094 23.464844 29.597656 23.308594 29.699219 23.164062 C 29.796875 23.027344 29.890625 22.898438 29.984375 22.777344 Z M 28.003906 19.878906 L 30.023438 22.730469 C 30.183594 22.523438 30.347656 22.34375 30.507812 22.191406 L 30.503906 22.1875 L 30.503906 22.179688 L 30.5 22.175781 L 30.5 22.167969 L 30.496094 22.164062 L 30.496094 22.15625 L 30.492188 22.152344 L 30.492188 22.140625 L 30.488281 22.136719 L 30.488281 22.125 L 30.484375 22.121094 L 30.484375 22.113281 L 30.480469 22.105469 L 30.480469 22.101562 L 30.476562 22.09375 L 30.476562 22.082031 L 30.472656 22.078125 L 30.472656 22.066406 L 30.46875 22.058594 L 30.46875 22.046875 L 30.464844 22.042969 L 30.464844 22.03125 L 30.460938 22.027344 L 30.460938 22.007812 L 30.457031 22.003906 C 30.445312 21.941406 30.4375 21.882812 30.433594 21.820312 L 30.433594 21.792969 L 30.429688 21.789062 L 30.429688 21.621094 L 30.433594 21.617188 L 30.433594 21.5625 L 30.4375 21.558594 L 30.4375 21.53125 L 30.441406 21.527344 L 30.441406 21.5 L 30.445312 21.496094 L 30.445312 21.46875 L 30.449219 21.464844 L 30.449219 21.445312 Z M 28.003906 19.878906 " />
                        </g>
                    </svg>
